<svg xmlns="http://www.w3.org/2000/svg" aria-hidden="true" style="position:absolute;width:0;height:0;overflow:hidden"><defs><symbol id="icon-burger-1" viewBox="0 0 46 32">
<path d="M2.087 13.565h42.087c1.153 0 2.087 0.934 2.087 2.087v0 0.348c0 1.153-0.934 2.087-2.087 2.087v0h-42.087c-1.153 0-2.087-0.934-2.087-2.087v0-0.348c0-1.153 0.934-2.087 2.087-2.087v0zM2.087 27.13h42.087c1.153 0 2.087 0.934 2.087 2.087v0 0.348c0 1.153-0.934 2.087-2.087 2.087v0h-42.087c-1.153 0-2.087-0.934-2.087-2.087v0-0.348c0-1.153 0.934-2.087 2.087-2.087v0zM2.087 0h42.087c1.153 0 2.087 0.934 2.087 2.087v0 0.348c0 1.153-0.934 2.087-2.087 2.087v0h-42.087c-1.153 0-2.087-0.934-2.087-2.087v0-0.348c0-1.153 0.934-2.087 2.087-2.087v0z"></path>
</symbol><symbol id="icon-close-modal" viewBox="0 0 32 32"><path d="M32 3.223 28.777 0 16 12.777 3.223 0 0 3.223 12.777 16 0 28.777 3.223 32 16 19.223 28.777 32 32 28.777 19.223 16 32 3.223z"/></symbol></defs></svg>