<svg xmlns="http://www.w3.org/2000/svg" aria-hidden="true" style="position:absolute;width:0;height:0;overflow:hidden"><defs><symbol id="icon-burger-1" viewBox="0 0 46 32">
<path d="M2.087 13.565h42.087c1.153 0 2.087 0.934 2.087 2.087v0 0.348c0 1.153-0.934 2.087-2.087 2.087v0h-42.087c-1.153 0-2.087-0.934-2.087-2.087v0-0.348c0-1.153 0.934-2.087 2.087-2.087v0zM2.087 27.13h42.087c1.153 0 2.087 0.934 2.087 2.087v0 0.348c0 1.153-0.934 2.087-2.087 2.087v0h-42.087c-1.153 0-2.087-0.934-2.087-2.087v0-0.348c0-1.153 0.934-2.087 2.087-2.087v0zM2.087 0h42.087c1.153 0 2.087 0.934 2.087 2.087v0 0.348c0 1.153-0.934 2.087-2.087 2.087v0h-42.087c-1.153 0-2.087-0.934-2.087-2.087v0-0.348c0-1.153 0.934-2.087 2.087-2.087v0z"></path>
</symbol>
<symbol id="icon-cat-paws" viewBox="0 0 25 32">
<path d="M12.069 0h-0c6.666 0 12.069 5.404 12.069 12.069v7.861c0 6.666-5.404 12.069-12.069 12.069h0c-6.666 0-12.069-5.404-12.069-12.069v-7.861c0-6.666 5.404-12.069 12.069-12.069z"></path>
</symbol></defs></svg>